# xmcd
#
# Track frame offsets:
#	150
#	15725
#	35149
#	52469
#	73494
#	91559
#	110574
#	127873
#	147492
#	169738
#	188427
#
# Disc length: 2724 seconds
#
# Revision: 0
# Processed by: cddbd v1.5.1PL0 Copyright (c) Steve Scherf et al.
# Submitted via: EasyCDDAExtractor 8.1.2.3
#
DISCID=9e0aa20b
DTITLE=chris cagle - anywhere but here
DYEAR=2005
DGENRE=Country
TTITLE0=You Might Wanna Think About It
TTITLE1=Wal- Mart Parking Lot
TTITLE2=Miss Me Baby
TTITLE3=Maria
TTITLE4=Anywhere But Here
TTITLE5=You Still Do That To Me
TTITLE6=Hey Y'All
TTITLE7=I Was Made For You
TTITLE8=Wanted Dead Or Alive
TTITLE9=When I Ger There
TTITLE10=I'll Find You
EXTD=
EXTT0=
EXTT1=
EXTT2=
EXTT3=
EXTT4=
EXTT5=
EXTT6=
EXTT7=
EXTT8=
EXTT9=
EXTT10=
PLAYORDER=
